<?xml version="1.0" standalone="no"?><!DOCTYPE svg PUBLIC "-//W3C//DTD SVG 1.1//EN" "http://www.w3.org/Graphics/SVG/1.1/DTD/svg11.dtd"><svg t="1659652703431" class="icon" viewBox="0 0 1024 1024" version="1.1" xmlns="http://www.w3.org/2000/svg" p-id="1503" xmlns:xlink="http://www.w3.org/1999/xlink" width="200" height="200"><defs><style type="text/css"></style></defs><path d="M256 85.333333h512c25.6 0 42.666667-17.066667 42.666667-42.666666S793.6 0 768 0h-512c-25.6 0-42.666667 17.066667-42.666667 42.666667s17.066667 42.666667 42.666667 42.666666zM896 341.333333H128c-51.2 0-85.333333 34.133333-85.333333 85.333334v512c0 51.2 34.133333 85.333333 85.333333 85.333333h768c51.2 0 85.333333-34.133333 85.333333-85.333333V426.666667c0-51.2-34.133333-85.333333-85.333333-85.333334z m0 597.333334H128V426.666667h768v512zM170.666667 256h682.666666c25.6 0 42.666667-17.066667 42.666667-42.666667S878.933333 170.666667 853.333333 170.666667h-682.666666c-25.6 0-42.666667 17.066667-42.666667 42.666666s17.066667 42.666667 42.666667 42.666667z" p-id="1504"></path></svg>
